# Blender 4.4.1
# www.blender.org
mtllib perspective bridge.mtl
o Cube
v -1.646086 -4.161099 -15.348315
v -1.646086 -4.398588 -15.348315
v -1.646086 -2.001256 0.268179
v -1.646086 -2.238744 0.268179
v -3.933914 -3.740329 -15.348315
v -3.933914 -4.398588 -15.348315
v -3.933914 -2.001256 0.268179
v -3.933914 -2.238744 0.268179
v -3.933914 -2.238744 -7.771212
v -1.646086 -2.002086 -7.771212
v -5.077564 -1.591460 -7.771212
v -1.646086 -2.239575 -7.771212
v 0.457428 -4.161099 -16.976791
v 0.457428 -4.398588 -16.976791
v -1.308418 -4.815286 -9.256777
v -1.308418 -4.577797 -9.256777
v -6.550078 -3.642544 -19.132626
v -7.343572 -1.591460 -7.771212
v -6.199922 -2.238744 -7.771212
v 2.909474 2.655752 -25.413048
v 2.909474 1.997493 -25.413048
v 0.643466 2.655752 -25.413048
v 0.643466 1.997493 -25.413048
v -1.800956 -1.264213 -23.875025
v -1.800956 -1.501702 -23.875025
v 0.302558 -1.264213 -23.875025
v 0.302558 -1.501702 -23.875025
v -1.767694 1.997493 -27.615652
v 2.909474 -0.139080 -32.071159
v 2.909474 -0.797339 -32.071159
v -0.917738 -0.139080 -32.071159
v -0.917738 -0.797339 -32.071159
v 2.909474 2.655752 -34.510841
v 2.909474 1.997493 -34.510841
v 0.643466 2.655752 -34.510841
v 0.643466 1.997493 -34.510841
v 0.643466 -0.797339 -28.742102
v 2.909474 -0.797339 -28.742102
v 0.643466 -0.139080 -28.742102
v 2.909474 -0.139080 -28.742102
v -4.046380 4.663190 -31.678337
v -8.143560 2.154151 -29.666325
v -6.963885 2.886292 -39.425068
v 1.961471 -3.351758 -17.014818
v 1.961471 -3.589247 -17.014818
v 1.806602 -0.454872 -23.913050
v 1.806602 -0.692361 -23.913050
v -3.940812 1.824871 -35.748112
v -5.940331 3.670689 -38.180122
v -3.429035 1.380957 -35.125641
v -4.523174 3.670695 -39.492222
v -5.546727 2.886297 -40.737167
v -2.523654 1.824876 -37.060211
v -2.011877 1.380962 -36.437740
vn 0.0716 0.9972 0.0203
vn -0.0000 -0.0000 1.0000
vn -0.0002 -1.0000 0.0001
vn 1.0000 -0.0000 -0.0000
vn -0.0000 -0.0000 -1.0000
vn -0.9998 -0.0000 0.0182
vn -0.0002 -0.9617 0.2741
vn -0.6117 -0.7907 0.0234
vn 0.1389 0.9553 -0.2611
vn 0.9748 -0.0000 0.2230
vn 0.7296 0.6838 0.0063
vn -0.7296 -0.6838 -0.0063
vn 0.9751 -0.0000 0.2216
vn 0.7459 0.6534 -0.1295
vn -0.2869 -0.9405 0.1823
vn 0.8270 -0.0000 0.5623
vn -0.4569 0.8552 0.2446
vn 0.3446 -0.8596 -0.3772
vn -0.6122 -0.0000 -0.7907
vn -0.0000 0.6576 0.7533
vn -0.1046 -0.0000 0.9945
vn -0.0000 -0.6576 -0.7534
vn -0.8423 -0.0000 -0.5390
vn -0.0000 0.7659 -0.6430
vn -1.0000 -0.0000 -0.0000
vn -0.0000 -0.7659 0.6430
vn -0.3563 -0.1568 -0.9211
vn 0.4126 0.7333 0.5404
vn -0.3291 -0.9316 0.1544
vn 0.9054 -0.0000 -0.4246
vn -0.3158 -0.0000 -0.9488
vn -0.3282 -0.8755 -0.3545
vn 0.9997 -0.0000 -0.0224
vn 0.0253 -0.0000 0.9997
vn -0.0253 -0.0000 -0.9997
vn 0.7724 -0.0000 -0.6351
vn -0.1481 -0.9759 -0.1600
vn 0.3409 0.8650 0.3682
vn -0.2977 0.8989 -0.3216
vn -0.7724 -0.0000 0.6351
vt 0.625000 0.507743
vt 0.875000 0.507743
vt 0.875000 0.750000
vt 0.625000 0.750000
vt 0.375000 0.750000
vt 0.625000 1.000000
vt 0.375000 1.000000
vt 0.125000 0.507743
vt 0.375000 0.507743
vt 0.125000 0.750000
vt 0.375000 0.250000
vt 0.625000 0.250000
vt 0.625000 0.500000
vt 0.375000 0.500000
vt 0.125000 0.500000
vt 0.375000 0.000000
vt 0.625000 0.000000
vt 0.625000 0.242257
vt 0.375000 0.242257
vt 0.875000 0.500000
vt 0.000000 0.000000
vt 0.478839 0.250000
vt 0.500000 0.250000
s 0
usemtl Material
f 10/1/1 11/2/1 7/3/1 3/4/1
f 4/5/2 3/4/2 7/6/2 8/7/2
f 9/8/3 12/9/3 4/5/3 8/10/3
f 12/9/4 10/1/4 3/4/4 4/5/4
f 6/11/5 5/12/5 1/13/5 2/14/5
f 2/14/6 1/13/6 24/13/6 25/14/6
f 6/15/7 2/14/7 12/9/7 9/8/7
f 8/16/8 7/17/8 11/18/8 9/19/8
f 1/13/9 5/20/9 11/2/9 10/1/9
f 14/14/10 13/13/10 16/1/10 15/9/10
f 1/13/11 10/1/11 16/1/11 13/13/11
f 12/9/12 2/14/12 14/14/12 15/9/12
f 10/1/13 12/9/13 15/9/13 16/1/13
f 9/19/2 11/18/2 18/18/2 19/19/2
f 5/21/14 11/21/14 9/21/14 6/21/14
f 6/15/15 9/8/15 19/8/15 17/15/15
f 38/21/5 37/21/5 39/12/5 40/21/5
f 5/12/16 6/11/16 21/11/16 20/12/16
f 25/14/5 24/13/5 26/13/5 27/14/5
f 22/12/17 23/11/17 28/11/17 17/12/17
f 23/15/18 17/15/18 28/15/18
f 2/14/19 1/13/19 13/13/19 14/14/19
f 31/21/20 29/21/20 33/21/20 35/21/20
f 37/11/21 39/12/21 42/11/21
f 30/11/2 29/12/2 31/21/2 32/11/2
f 40/12/4 38/11/4 30/11/4 29/12/4
f 33/12/5 34/11/5 36/11/5 35/12/5
f 29/12/4 30/11/4 34/11/4 33/12/4
f 30/21/22 32/21/22 36/21/22 34/21/22
f 32/11/23 31/12/23 35/12/23 36/11/23
f 20/12/4 21/11/4 38/11/4 40/12/4
f 22/21/24 20/21/24 40/21/24 39/21/24
f 23/11/25 22/12/25 39/12/25 37/11/25
f 21/21/26 23/21/26 37/21/26 38/21/26
f 31/12/27 42/11/27 41/12/27
f 39/21/28 31/21/28 41/21/28 42/21/28
f 32/21/29 37/21/29 42/21/29
f 32/11/30 31/21/30 39/21/30 37/21/30
f 32/21/31 42/21/31 31/12/31
f 50/21/32 48/21/32 53/21/32 54/21/32
f 44/13/33 45/14/33 47/14/33 46/13/33
f 13/13/34 14/14/34 45/14/34 44/13/34
f 27/14/35 26/13/35 46/13/35 47/14/35
f 31/12/36 32/11/36 50/22/36 49/12/36
f 51/12/36 54/22/36 53/23/36 52/12/36
f 48/21/37 43/21/37 52/21/37 53/21/37
f 49/12/38 50/22/38 54/22/38 51/12/38
f 43/21/39 49/21/39 51/21/39 52/21/39
f 50/21/40 49/21/40 43/21/40 48/21/40
